 <svg font-family="monospace" font-size="14" width="900" height="680" xmlns="http://www.w3.org/2000/svg"><text x="30" y="30">&#128194; src</text><text x="70" y="60">&#128194; app</text><line x1="20" y1="35" x2="20" y2="50" stroke="black" stroke-width="1" /><line x1="20" y1="50" x2="64" y2="50" stroke="black" stroke-width="1" /><text x="110" y="90">&#128196; layout.tsx   # Root layout</text><line x1="60" y1="65" x2="60" y2="80" stroke="black" stroke-width="1" /><line x1="60" y1="80" x2="104" y2="80" stroke="black" stroke-width="1" /><text x="110" y="120">&#128194; auth</text><line x1="60" y1="65" x2="60" y2="110" stroke="black" stroke-width="1" /><line x1="60" y1="110" x2="104" y2="110" stroke="black" stroke-width="1" /><text x="150" y="150">&#128196; layout.tsx   # Auth layout</text><line x1="100" y1="125" x2="100" y2="140" stroke="black" stroke-width="1" /><line x1="100" y1="140" x2="144" y2="140" stroke="black" stroke-width="1" /><text x="150" y="180">&#128196; sign-in/page.tsx</text><line x1="100" y1="125" x2="100" y2="170" stroke="black" stroke-width="1" /><line x1="100" y1="170" x2="144" y2="170" stroke="black" stroke-width="1" /><text x="150" y="210">&#128196; sign-up/page.tsx</text><line x1="100" y1="125" x2="100" y2="200" stroke="black" stroke-width="1" /><line x1="100" y1="200" x2="144" y2="200" stroke="black" stroke-width="1" /><text x="150" y="240">&#128196; forgot-password/page.tsx</text><line x1="100" y1="125" x2="100" y2="230" stroke="black" stroke-width="1" /><line x1="100" y1="230" x2="144" y2="230" stroke="black" stroke-width="1" /><text x="150" y="270">&#128196; create-new-password/page.tsx</text><line x1="100" y1="125" x2="100" y2="260" stroke="black" stroke-width="1" /><line x1="100" y1="260" x2="144" y2="260" stroke="black" stroke-width="1" /><text x="70" y="300">&#128194; pages</text><line x1="20" y1="35" x2="20" y2="290" stroke="black" stroke-width="1" /><line x1="20" y1="290" x2="64" y2="290" stroke="black" stroke-width="1" /><text x="110" y="330">&#128194; auth</text><line x1="60" y1="305" x2="60" y2="320" stroke="black" stroke-width="1" /><line x1="60" y1="320" x2="104" y2="320" stroke="black" stroke-width="1" /><text x="150" y="360">&#128196; SignInPage.tsx</text><line x1="100" y1="335" x2="100" y2="350" stroke="black" stroke-width="1" /><line x1="100" y1="350" x2="144" y2="350" stroke="black" stroke-width="1" /><text x="150" y="390">&#128196; SignUpPage.tsx</text><line x1="100" y1="335" x2="100" y2="380" stroke="black" stroke-width="1" /><line x1="100" y1="380" x2="144" y2="380" stroke="black" stroke-width="1" /><text x="150" y="420">&#128196; ForgotPasswordPage.tsx</text><line x1="100" y1="335" x2="100" y2="410" stroke="black" stroke-width="1" /><line x1="100" y1="410" x2="144" y2="410" stroke="black" stroke-width="1" /><text x="150" y="450">&#128196; CreateNewPasswordPage.tsx</text><line x1="100" y1="335" x2="100" y2="440" stroke="black" stroke-width="1" /><line x1="100" y1="440" x2="144" y2="440" stroke="black" stroke-width="1" /><text x="70" y="480">&#128194; features</text><line x1="20" y1="35" x2="20" y2="470" stroke="black" stroke-width="1" /><line x1="20" y1="470" x2="64" y2="470" stroke="black" stroke-width="1" /><text x="110" y="510">&#128194; auth</text><line x1="60" y1="485" x2="60" y2="500" stroke="black" stroke-width="1" /><line x1="60" y1="500" x2="104" y2="500" stroke="black" stroke-width="1" /><text x="150" y="540">&#128196; sign-in/ui/SignInForm.tsx</text><line x1="100" y1="515" x2="100" y2="530" stroke="black" stroke-width="1" /><line x1="100" y1="530" x2="144" y2="530" stroke="black" stroke-width="1" /><text x="150" y="570">&#128196; sign-up/ui/SignUpForm.tsx</text><line x1="100" y1="515" x2="100" y2="560" stroke="black" stroke-width="1" /><line x1="100" y1="560" x2="144" y2="560" stroke="black" stroke-width="1" /><text x="150" y="600">&#128196; reset-request/ui/ForgotPasswordForm.tsx</text><line x1="100" y1="515" x2="100" y2="590" stroke="black" stroke-width="1" /><line x1="100" y1="590" x2="144" y2="590" stroke="black" stroke-width="1" /><text x="150" y="630">&#128196; reset-confirm/ui/CreateNewPasswordForm.tsx</text><line x1="100" y1="515" x2="100" y2="620" stroke="black" stroke-width="1" /><line x1="100" y1="620" x2="144" y2="620" stroke="black" stroke-width="1" /></svg>